<?xml version="1.0" standalone="no"?>
<!DOCTYPE svg PUBLIC "-//W3C//DTD SVG 20010904//EN"
 "http://www.w3.org/TR/2001/REC-SVG-20010904/DTD/svg10.dtd">
<svg version="1.0" xmlns="http://www.w3.org/2000/svg"
 width="600.000000pt" height="600.000000pt" viewBox="0 0 600.000000 600.000000"
 preserveAspectRatio="xMidYMid meet">

<g transform="translate(0.000000,600.000000) scale(0.100000,-0.100000)"
fill="#000000" stroke="none">
<path d="M2683 4830 c-588 -106 -1085 -479 -1348 -1014 -93 -191 -162 -433
-180 -636 l-6 -75 30 51 c60 103 151 154 276 154 l80 0 579 579 578 578 2 84
c1 69 6 94 28 139 31 62 74 108 133 139 l40 21 -55 -1 c-30 0 -101 -9 -157
-19z"/>
<path d="M3152 4830 c103 -56 162 -159 163 -283 l1 -78 578 -578 579 -579 91
-4 c69 -3 102 -10 134 -27 54 -28 112 -86 136 -135 10 -21 20 -36 22 -33 9 8
-28 244 -52 342 -160 629 -643 1137 -1259 1322 -116 35 -253 62 -347 68 l-83
6 37 -21z"/>
<path d="M2925 4726 c-43 -18 -92 -78 -105 -127 -28 -103 44 -210 157 -234 70
-14 170 42 199 112 29 68 9 169 -42 214 -55 48 -145 63 -209 35z"/>
<path d="M2225 3770 c-296 -296 -537 -541 -535 -543 3 -2 54 -30 114 -61 l109
-58 491 491 491 491 -57 107 c-31 59 -60 109 -65 110 -4 2 -251 -240 -548
-537z"/>
<path d="M3207 4268 c-13 -24 -41 -74 -62 -112 l-37 -69 490 -490 491 -491 53
29 c29 15 82 44 117 63 l63 35 -538 538 c-297 297 -542 539 -546 539 -4 0 -18
-19 -31 -42z"/>
<path d="M2510 3495 l-495 -495 495 -495 495 -495 495 495 495 495 -495 495
-495 495 -495 -495z m850 -140 l355 -355 -358 -358 -357 -357 -357 357 -358
358 355 355 c195 195 357 355 360 355 3 0 165 -160 360 -355z"/>
<path d="M2940 3525 l-54 -55 114 0 114 0 -54 55 c-30 30 -57 55 -60 55 -3 0
-30 -25 -60 -55z"/>
<path d="M2895 3236 c-55 -25 -109 -80 -133 -135 -8 -20 -15 -65 -16 -101 -1
-178 176 -304 345 -245 61 22 105 59 138 117 63 110 47 223 -42 312 -80 80
-191 100 -292 52z"/>
<path d="M2470 3055 l-54 -55 54 -55 c30 -30 58 -55 62 -55 4 0 8 50 8 110 0
61 -4 110 -8 110 -4 0 -32 -25 -62 -55z"/>
<path d="M3470 3000 l0 -115 57 58 58 57 -58 57 -57 58 0 -115z"/>
<path d="M2895 2529 c-2 -3 20 -30 50 -59 l55 -54 55 54 c30 30 55 57 55 60 0
7 -211 6 -215 -1z"/>
<path d="M1375 3171 c-154 -71 -150 -280 7 -346 92 -38 195 5 239 100 23 49
24 94 4 143 -44 103 -153 148 -250 103z"/>
<path d="M4471 3168 c-135 -67 -135 -271 1 -337 180 -87 354 126 233 285 -54
71 -153 92 -234 52z"/>
<path d="M1155 2820 c73 -832 733 -1529 1567 -1655 54 -8 115 -15 135 -15 l38
0 -35 18 c-59 28 -125 102 -149 168 -18 45 -22 74 -19 126 l4 67 -581 581
-581 581 -89 2 c-70 2 -99 8 -131 24 -62 33 -102 70 -135 127 l-30 51 6 -75z"/>
<path d="M1805 2835 c-55 -30 -101 -58 -102 -62 -2 -4 239 -250 536 -547 l538
-538 57 106 c31 58 56 109 56 113 0 9 -972 983 -980 983 -3 -1 -50 -25 -105
-55z"/>
<path d="M3596 2401 l-488 -488 24 -44 c14 -24 42 -75 63 -113 l37 -69 539
539 c297 297 539 542 539 545 0 6 -205 119 -217 119 -5 0 -228 -220 -497 -489z"/>
<path d="M4834 2855 c-9 -20 -37 -56 -62 -80 -59 -58 -130 -85 -225 -85 l-72
0 -580 -580 -579 -579 -1 -78 c-1 -124 -60 -227 -163 -283 l-37 -21 78 5 c417
29 867 256 1182 596 204 221 355 500 428 795 32 126 65 345 53 345 -3 0 -13
-16 -22 -35z"/>
<path d="M2945 1628 c-69 -25 -113 -77 -129 -155 -16 -70 40 -170 111 -199 65
-28 152 -13 207 35 51 45 71 146 42 214 -25 62 -114 119 -181 116 -11 0 -33
-5 -50 -11z"/>
</g>
</svg>
